<?xml version="1.0" encoding="UTF-8"?>
<!DOCTYPE svg PUBLIC "-//W3C//DTD SVG 1.1//EN" "http://www.w3.org/Graphics/SVG/1.1/DTD/svg11.dtd">
<svg xmlns="http://www.w3.org/2000/svg" version="1.1" width="164px" height="50px"
     style="shape-rendering:geometricPrecision; text-rendering:geometricPrecision; image-rendering:optimizeQuality; fill-rule:evenodd; clip-rule:evenodd"
     xmlns:xlink="http://www.w3.org/1999/xlink">
  <g>
    <path style="opacity:0.999" fill="#020202"
          d="M 71.5,-0.5 C 71.8333,-0.5 72.1667,-0.5 72.5,-0.5C 72.7564,1.7925 72.4231,3.95917 71.5,6C 73.1667,5.66667 74.8333,5.33333 76.5,5C 75.4088,7.88528 74.5754,10.7186 74,13.5C 78.4132,14.6324 82.9132,14.7991 87.5,14C 88.8045,13.196 89.4712,12.0293 89.5,10.5C 87.3415,6.63135 85.0082,2.96469 82.5,-0.5C 83.5,-0.5 84.5,-0.5 85.5,-0.5C 89.0385,1.52277 92.2052,4.18944 95,7.5C 96.6667,11.5 98.3333,15.5 100,19.5C 101.745,20.9557 103.578,22.289 105.5,23.5C 106.348,25.4086 106.682,27.4086 106.5,29.5C 108.39,29.2965 109.89,29.9632 111,31.5C 112.11,29.7571 113.61,28.4238 115.5,27.5C 114.141,25.3078 112.308,23.6411 110,22.5C 109.852,19.4114 109.019,16.5781 107.5,14C 110.367,9.5747 112.367,4.74137 113.5,-0.5C 114.5,-0.5 115.5,-0.5 116.5,-0.5C 117.032,1.63013 117.865,3.63013 119,5.5C 119.743,3.35527 120.576,3.18861 121.5,5C 117.437,11.5571 118.27,12.0571 124,6.5C 124.2,9.28402 123.366,11.784 121.5,14C 123.315,17.2013 125.315,17.2013 127.5,14C 126.971,12.4411 126.304,10.9411 125.5,9.5C 125.977,8.06902 126.643,6.73569 127.5,5.5C 129.472,10.0555 131.139,14.7222 132.5,19.5C 131.184,23.0584 131.85,26.2251 134.5,29C 134.167,29.3333 133.833,29.6667 133.5,30C 134.912,31.7915 136.745,32.9582 139,33.5C 139.833,35.5 140.667,37.5 141.5,39.5C 142.614,38.277 142.781,36.9437 142,35.5C 140.5,30.8397 138.333,26.5063 135.5,22.5C 134.139,20.0165 134.306,17.6832 136,15.5C 138.58,20.084 141.913,24.084 146,27.5C 147.745,24.6222 148.245,21.6222 147.5,18.5C 146.817,18.8627 146.15,19.1961 145.5,19.5C 145.414,18.5041 145.748,17.6708 146.5,17C 144.557,17.3052 142.557,17.3052 140.5,17C 142.689,14.1448 145.189,11.6448 148,9.5C 153.213,11.6502 158.38,13.9835 163.5,16.5C 163.5,20.1667 163.5,23.8333 163.5,27.5C 161.838,29.9123 160.838,32.7456 160.5,36C 161.244,37.0386 162.244,37.5386 163.5,37.5C 163.5,41.5 163.5,45.5 163.5,49.5C 108.833,49.5 54.1667,49.5 -0.5,49.5C -0.5,44.1667 -0.5,38.8333 -0.5,33.5C 1.91146,33.8633 3.41146,32.8633 4,30.5C 4.88296,25.8522 4.04963,21.5188 1.5,17.5C 3.48859,14.0345 4.98859,10.3678 6,6.5C 7.81752,4.35456 9.31752,4.35456 10.5,6.5C 11.8139,5.68723 12.9805,4.68723 14,3.5C 14.2912,5.783 13.7912,7.94967 12.5,10C 13.1271,12.1351 13.6271,14.3018 14,16.5C 16.749,18.374 19.749,19.7073 23,20.5C 24.2613,20.2409 25.2613,19.5742 26,18.5C 26.5,16.5 27,14.5 27.5,12.5C 25.971,10.1288 24.6377,7.62881 23.5,5C 26.2891,5.33178 28.4558,6.83178 30,9.5C 31.6486,16.8099 33.1486,24.1433 34.5,31.5C 33.8333,33.5 33.1667,35.5 32.5,37.5C 32.8333,38.1667 33.1667,38.8333 33.5,39.5C 34.5,39 35.5,38.5 36.5,38C 38.2489,34.2707 39.9156,30.4373 41.5,26.5C 41.7169,23.3331 41.0503,20.1664 39.5,17C 40.8001,14.5627 41.8001,12.0627 42.5,9.5C 47.0977,7.79563 51.7644,6.62896 56.5,6C 55.5266,8.54743 53.6933,10.0474 51,10.5C 50.433,13.1677 49.933,15.8344 49.5,18.5C 50.5,18.5 51.5,18.5 52.5,18.5C 53.0303,15.3181 54.0303,12.3181 55.5,9.5C 58.1667,9.5 60.8333,9.5 63.5,9.5C 63.3433,8.12656 63.51,6.79323 64,5.5C 64.6152,7.11613 65.6152,8.44946 67,9.5C 68.232,6.0367 69.732,2.70337 71.5,-0.5 Z M 8.5,10.5 C 9.69348,10.9704 10.3601,11.9704 10.5,13.5C 10.0674,17.042 9.0674,16.8753 7.5,13C 8.25244,12.3292 8.58577,11.4959 8.5,10.5 Z M 58.5,12.5 C 59.5,12.5 60.5,12.5 61.5,12.5C 61.8277,16.8165 63.161,20.8165 65.5,24.5C 62.4542,27.2661 59.6209,26.9328 57,23.5C 55.0353,19.5403 55.5353,15.8736 58.5,12.5 Z M 69.5,25.5 C 72.2723,25.5952 74.2723,26.9285 75.5,29.5C 77.1667,27.8333 78.1667,28.1667 78.5,30.5C 77.0953,34.6929 74.0953,36.3596 69.5,35.5C 69.719,34.325 69.3857,33.325 68.5,32.5C 65.6724,33.9957 64.0057,36.329 63.5,39.5C 62.3112,40.4287 60.9778,40.762 59.5,40.5C 59.3505,39.448 59.5172,38.448 60,37.5C 61.8602,34.7281 64.1935,32.3947 67,30.5C 67.3345,28.4971 68.1679,26.8304 69.5,25.5 Z M 82.5,26.5 C 84.1042,27.287 84.7709,28.6203 84.5,30.5C 88.8395,30.8538 89.6728,32.8538 87,36.5C 86.6667,35.8333 86.3333,35.1667 86,34.5C 85.3109,35.3567 84.4776,36.0233 83.5,36.5C 82.513,33.2317 82.1796,29.8984 82.5,26.5 Z M 41.5,29.5 C 42.7733,30.0768 42.7733,30.7435 41.5,31.5C 40.537,31.0302 40.537,30.3635 41.5,29.5 Z M 12.5,30.5 C 16.8946,30.9267 19.3946,33.26 20,37.5C 20.6543,36.3044 21.1543,36.3044 21.5,37.5C 20.0521,38.3539 18.7187,39.3539 17.5,40.5C 16.9961,37.4778 15.3294,36.3111 12.5,37C 14.087,39.8652 13.4203,42.0319 10.5,43.5C 6.61568,41.4068 6.61568,39.2401 10.5,37C 11.6094,34.9534 12.2761,32.7867 12.5,30.5 Z M 40.5,32.5 C 42.6559,32.8718 42.6559,33.8718 40.5,35.5C 39.913,34.7666 39.913,33.7666 40.5,32.5 Z M 43.5,34.5 C 45.1015,35.5188 46.1015,37.0188 46.5,39C 44.8881,40.482 43.8881,42.3153 43.5,44.5C 42.5,44.5 41.5,44.5 40.5,44.5C 40.3379,42.4727 40.5045,40.4727 41,38.5C 42.4813,37.5291 43.3146,36.1958 43.5,34.5 Z M 117.5,34.5 C 119.048,34.8212 119.715,35.8212 119.5,37.5C 116.752,37.5983 116.086,36.5983 117.5,34.5 Z M 135.5,34.5 C 137.273,35.3143 137.773,36.6476 137,38.5C 135.812,37.4366 135.312,36.1033 135.5,34.5 Z M 36.5,39.5 C 37.7733,40.0768 37.7733,40.7435 36.5,41.5C 35.537,41.0302 35.537,40.3635 36.5,39.5 Z"/>
  </g>
  <g>
    <path style="opacity:1" fill="#141514" d="M 145.5,19.5 C 144.833,20.1667 144.833,20.1667 145.5,19.5 Z"/>
  </g>
  <g>
    <path style="opacity:0.014" fill="#0f0f0f"
          d="M -0.5,19.5 C 0.833333,20.5 0.833333,21.5 -0.5,22.5C -0.5,21.5 -0.5,20.5 -0.5,19.5 Z"/>
  </g>
</svg>
